<?xml version="1.0" encoding="UTF-8" standalone="no" ?>
<!DOCTYPE svg PUBLIC "-//W3C//DTD SVG 1.1//EN" "http://www.w3.org/Graphics/SVG/1.1/DTD/svg11.dtd">
<svg xmlns="http://www.w3.org/2000/svg" xmlns:xlink="http://www.w3.org/1999/xlink" version="1.1" width="640" height="480" viewBox="0 0 640 480" xml:space="preserve">
<desc>Created with Fabric.js 3.6.6</desc>
<defs>
</defs>
<g transform="matrix(23.31 0 0 23.31 312.6 239.6)"  >
<path style="stroke: none; stroke-width: 1; stroke-dasharray: none; stroke-linecap: butt; stroke-dashoffset: 0; stroke-linejoin: miter; stroke-miterlimit: 4; fill: rgb(118,126,130); fill-rule: nonzero; opacity: 1;" vector-effect="non-scaling-stroke"  transform=" translate(-12, -12)" d="M 22 5 a 1 1 0 0 1 -1 1 H 3 A 1 1 0 0 1 3 4 H 8 V 3 A 1 1 0 0 1 9 2 h 6 a 1 1 0 0 1 1 1 V 4 h 5 A 1 1 0 0 1 22 5 Z M 4.934 21.071 L 4 8 H 20 l -0.934 13.071 a 1 1 0 0 1 -1 0.929 H 5.931 A 1 1 0 0 1 4.934 21.071 Z M 15 18 a 1 1 0 0 0 2 0 V 12 a 1 1 0 0 0 -2 0 Z m -4 0 a 1 1 0 0 0 2 0 V 12 a 1 1 0 0 0 -2 0 Z M 7 18 a 1 1 0 0 0 2 0 V 12 a 1 1 0 0 0 -2 0 Z" stroke-linecap="round" />
</g>
</svg>